<mxfile host="65bd71144e">
    <diagram id="piIeMQWpUwdeLsbxhuyu" name="Page-1">
        <mxGraphModel dx="1230" dy="1198" grid="1" gridSize="10" guides="1" tooltips="1" connect="1" arrows="1" fold="1" page="1" pageScale="1" pageWidth="1200" pageHeight="800" math="0" shadow="0">
            <root>
                <mxCell id="0"/>
                <mxCell id="1" parent="0"/>
                <mxCell id="11" style="orthogonalLoop=1;jettySize=auto;html=1;strokeColor=#0B4D6A;strokeWidth=2;" parent="1" source="20" target="5" edge="1">
                    <mxGeometry relative="1" as="geometry">
                        <mxPoint x="332.2974117350293" y="400.0033333333331" as="sourcePoint"/>
                    </mxGeometry>
                </mxCell>
                <mxCell id="16" value="Assess" style="edgeLabel;html=1;align=center;verticalAlign=middle;resizable=0;points=[];fontSize=30;" vertex="1" connectable="0" parent="11">
                    <mxGeometry x="0.4725" y="1" relative="1" as="geometry">
                        <mxPoint x="-69" y="67" as="offset"/>
                    </mxGeometry>
                </mxCell>
                <mxCell id="5" value="&lt;font&gt;&lt;span style=&quot;font-size: 30px&quot;&gt;Contextual&lt;br&gt;Awareness&lt;/span&gt;&lt;/font&gt;" style="whiteSpace=wrap;html=1;rounded=1;fillColor=#09555B;strokeColor=#BAC8D3;fontColor=#EEEEEE;strokeWidth=2;" parent="1" vertex="1">
                    <mxGeometry x="420.00333333333333" y="30" width="313.33333333333337" height="156.66666666666669" as="geometry"/>
                </mxCell>
                <mxCell id="12" style="edgeStyle=none;orthogonalLoop=1;jettySize=auto;html=1;strokeColor=#0B4D6A;strokeWidth=2;fontSize=30;" parent="1" source="5" target="21" edge="1">
                    <mxGeometry relative="1" as="geometry">
                        <mxPoint x="814.8231447969756" y="410.0033333333331" as="targetPoint"/>
                    </mxGeometry>
                </mxCell>
                <mxCell id="17" value="Adjust" style="edgeLabel;html=1;align=center;verticalAlign=middle;resizable=0;points=[];fontSize=30;" vertex="1" connectable="0" parent="12">
                    <mxGeometry x="-0.2492" y="-1" relative="1" as="geometry">
                        <mxPoint x="27" y="28" as="offset"/>
                    </mxGeometry>
                </mxCell>
                <mxCell id="20" value="&lt;font&gt;&lt;span style=&quot;font-size: 30px&quot;&gt;Intrinsic &lt;br&gt;Drive&lt;/span&gt;&lt;/font&gt;" style="whiteSpace=wrap;html=1;rounded=1;fillColor=#09555B;strokeColor=#BAC8D3;fontColor=#EEEEEE;strokeWidth=2;" vertex="1" parent="1">
                    <mxGeometry x="70.00333333333333" y="440" width="313.33333333333337" height="156.66666666666669" as="geometry"/>
                </mxCell>
                <mxCell id="22" value="Align" style="edgeStyle=none;html=1;fontSize=30;strokeColor=#0B4D6A;strokeWidth=2;" edge="1" parent="1" source="21" target="20">
                    <mxGeometry relative="1" as="geometry"/>
                </mxCell>
                <mxCell id="21" value="&lt;span style=&quot;font-size: 30px&quot;&gt;Clear Strategy&lt;/span&gt;" style="whiteSpace=wrap;html=1;rounded=1;fillColor=#09555B;strokeColor=#BAC8D3;fontColor=#EEEEEE;strokeWidth=2;" vertex="1" parent="1">
                    <mxGeometry x="720.0033333333333" y="440" width="313.33333333333337" height="156.66666666666669" as="geometry"/>
                </mxCell>
            </root>
        </mxGraphModel>
    </diagram>
</mxfile>